<?xml version="1.0" encoding="UTF-8" standalone="no"?>
<svg
   xmlns:dc="http://purl.org/dc/elements/1.1/"
   xmlns:cc="http://creativecommons.org/ns#"
   xmlns:rdf="http://www.w3.org/1999/02/22-rdf-syntax-ns#"
   xmlns:svg="http://www.w3.org/2000/svg"
   xmlns="http://www.w3.org/2000/svg"
   xmlns:sodipodi="http://sodipodi.sourceforge.net/DTD/sodipodi-0.dtd"
   xmlns:inkscape="http://www.inkscape.org/namespaces/inkscape"
   width="10"
   height="9"
   viewBox="0 0 10 9"
   version="1.1"
   id="svg4"
   sodipodi:docname="hamburger2.svg"
   inkscape:version="1.0.1 (3bc2e813f5, 2020-09-07)">
  <metadata
     id="metadata10">
    <rdf:RDF>
      <cc:Work
         rdf:about="">
        <dc:format>image/svg+xml</dc:format>
        <dc:type
           rdf:resource="http://purl.org/dc/dcmitype/StillImage" />
        <dc:title></dc:title>
      </cc:Work>
    </rdf:RDF>
  </metadata>
  <defs
     id="defs8" />
  <sodipodi:namedview
     pagecolor="#ffffff"
     bordercolor="#666666"
     borderopacity="1"
     objecttolerance="10"
     gridtolerance="10"
     guidetolerance="10"
     inkscape:pageopacity="0"
     inkscape:pageshadow="2"
     inkscape:window-width="1366"
     inkscape:window-height="715"
     id="namedview6"
     showgrid="false"
     inkscape:zoom="60.888889"
     inkscape:cx="3.669708"
     inkscape:cy="4.5"
     inkscape:window-x="-8"
     inkscape:window-y="-8"
     inkscape:window-maximized="1"
     inkscape:current-layer="svg4" />
  <path
     fill="#0067F6"
     d="M0,1.17613636 C0,0.7245 0.3584,0.357954545 0.8,0.357954545 L9.1,0.357954545 C9.5416,0.357954545 9.9,0.7245 9.9,1.17613636 C9.9,1.62777273 9.5416,1.99431818 9.1,1.99431818 L0.8,1.99431818 C0.3584,1.99431818 0,1.62777273 0,1.17613636 Z M9.1,3.83522727 L0.8,3.83522727 C0.3584,3.83522727 0,4.20177273 0,4.65340909 C0,5.10504545 0.3584,5.47159091 0.8,5.47159091 L9.1,5.47159091 C9.5416,5.47159091 9.9,5.10504545 9.9,4.65340909 C9.9,4.20177273 9.542,3.83522727 9.1,3.83522727 Z M9.1,7.3125 L0.8,7.3125 C0.3584,7.3125 0,7.67904545 0,8.13068182 C0,8.58231818 0.3584,8.94886364 0.8,8.94886364 L9.1,8.94886364 C9.5416,8.94886364 9.9,8.58231818 9.9,8.13068182 C9.9,7.67904545 9.542,7.3125 9.1,7.3125 Z"
     id="path2"
     style="fill:#00f9ff;fill-opacity:1" />
</svg>
